<svg width="40" height="40" viewBox="0 0 40 40" fill="none" xmlns="http://www.w3.org/2000/svg">
<path fill-rule="evenodd" clip-rule="evenodd" d="M31.3633 23.5414C30.336 22.3503 28.5714 22.4117 27.1916 23.1669C25.0564 24.3356 22.6058 25 20 25C17.3942 25 14.9436 24.3356 12.8084 23.1669C11.4286 22.4117 9.66402 22.3503 8.63667 23.5414C6.37037 26.169 5 29.5912 5 33.3334V35C5 36.841 6.49238 38.3334 8.33333 38.3334H31.6667C33.5076 38.3334 35 36.841 35 35V33.3334C35 29.5912 33.6296 26.169 31.3633 23.5414Z" fill="#45B36B"/>
<path d="M28.3333 9.99996C28.3333 14.6023 24.6023 18.3333 20 18.3333C15.3976 18.3333 11.6666 14.6023 11.6666 9.99996C11.6666 5.39759 15.3976 1.66663 20 1.66663C24.6023 1.66663 28.3333 5.39759 28.3333 9.99996Z" fill="#45B36B"/>
</svg>
