<svg width="48" height="48" viewBox="0 0 48 48" fill="none" xmlns="http://www.w3.org/2000/svg">
<path fill-rule="evenodd" clip-rule="evenodd" d="M24 44C31.732 44 38 37.732 38 30C38 22.268 31.732 16 24 16C16.268 16 10 22.268 10 30C10 37.732 16.268 44 24 44ZM24 48C33.9411 48 42 39.9411 42 30C42 20.0589 33.9411 12 24 12C14.0589 12 6 20.0589 6 30C6 39.9411 14.0589 48 24 48Z" fill="white"/>
<path fill-rule="evenodd" clip-rule="evenodd" d="M17.7082 6C14.7347 6 12.8007 9.12925 14.1305 11.7889L15.7888 15.1056C16.2828 16.0935 15.8824 17.2949 14.8944 17.7889C13.9065 18.2828 12.7051 17.8824 12.2111 16.8944L10.5528 13.5777C7.89318 8.2585 11.7611 2 17.7082 2H30.2918C36.2388 2 40.1068 8.2585 37.4472 13.5777L35.7888 16.8944C35.2949 17.8824 34.0935 18.2828 33.1056 17.7889C32.1176 17.2949 31.7172 16.0935 32.2111 15.1056L33.8695 11.7889C35.1993 9.12925 33.2653 6 30.2918 6H17.7082Z" fill="white"/>
</svg>
