<svg width="48" height="48" viewBox="0 0 48 48" fill="none" xmlns="http://www.w3.org/2000/svg">
<path fill-rule="evenodd" clip-rule="evenodd" d="M24 40C32.8366 40 40 32.8366 40 24C40 15.1634 32.8366 8 24 8C15.1634 8 8 15.1634 8 24C8 32.8366 15.1634 40 24 40ZM24 44C35.0457 44 44 35.0457 44 24C44 12.9543 35.0457 4 24 4C12.9543 4 4 12.9543 4 24C4 35.0457 12.9543 44 24 44Z" fill="white"/>
<path d="M12 40.0015C16.8578 36.3526 20 30.5433 20 24C20 17.4567 16.8578 11.6474 12 7.99854C10.9082 8.8186 9.90312 9.7478 9.00085 10.7699C13.2259 13.65 16 18.501 16 24C16 29.499 13.2259 34.35 9.00086 37.2301C9.90313 38.2522 10.9082 39.1814 12 40.0015Z" fill="white"/>
<path d="M36 7.99854C31.1422 11.6474 28 17.4567 28 24C28 30.5433 31.1422 36.3526 36 40.0015C37.0918 39.1814 38.0969 38.2522 38.9992 37.2301C34.7741 34.35 32 29.499 32 24C32 18.501 34.7741 13.65 38.9992 10.7699C38.0969 9.7478 37.0918 8.8186 36 7.99854Z" fill="white"/>
</svg>
